# xmcd
#
# Track frame offsets: 
#        150
#        16338
#        31727
#        46957
#        64944
#        80290
#        97611
#        116795
#        134950
#        153623
#        172605
#        190978
#
# Disc length: 2834 seconds
#
# Revision: 0
# Processed by: cddbd v1.5.2PL0 Copyright (c) Steve Scherf et al.
# Submitted via: ExactAudioCopy v1.0b1
#
DISCID=940b100c
DTITLE=Dolly Parton - Blue Smoke (The Best of) CD1
DYEAR=2014
DGENRE=Country
TTITLE0=Blue Smoke 
TTITLE1=Unlikely Angel 
TTITLE2=Don't Think Twice 
TTITLE3=You Can't Make Old Friends
TTITLE4=Home
TTITLE5=Banks of the Ohio
TTITLE6=Lay Your Hands on Me
TTITLE7=Miss You-Miss Me 
TTITLE8=If I Had Wings
TTITLE9=Lover du Jour 
TTITLE10=From Here to the Moon and Back
TTITLE11=Try
EXTD=
EXTT0=
EXTT1=
EXTT2=
EXTT3=
EXTT4=
EXTT5=
EXTT6=
EXTT7=
EXTT8=
EXTT9=
EXTT10=
EXTT11=
PLAYORDER=
